<svg xmlns="http://www.w3.org/2000/svg" viewBox="-4 -4 198 78" width="1188" height="468" shape-rendering="crispEdges"><defs><linearGradient id="g" x1="0" y1="0" x2="1" y2="0.7"><stop offset="0" stop-color="#F4589F"></stop><stop offset=".34" stop-color="#FF8878"></stop><stop offset=".62" stop-color="#EFAE63"></stop><stop offset="1" stop-color="#6E8BE8"></stop></linearGradient></defs><g fill="#453E52"><rect x="-3" y="-3" width="56" height="16"></rect><rect x="17" y="7" width="16" height="66"></rect><rect x="57" y="-3" width="16" height="76"></rect><rect x="67" y="-3" width="36" height="16"></rect><rect x="67" y="57" width="36" height="16"></rect><rect x="97" y="7" width="16" height="56"></rect><rect x="117" y="-3" width="16" height="76"></rect><rect x="177" y="-3" width="16" height="76"></rect><rect x="127" y="-3" width="16" height="16"></rect><rect x="167" y="-3" width="16" height="16"></rect><rect x="137" y="7" width="16" height="16"></rect><rect x="157" y="7" width="16" height="16"></rect><rect x="147" y="17" width="16" height="26"></rect></g><g fill="url(#g)"><rect x="0" y="0" width="50" height="10"></rect><rect x="20" y="10" width="10" height="60"></rect><rect x="60" y="0" width="10" height="70"></rect><rect x="70" y="0" width="30" height="10"></rect><rect x="70" y="60" width="30" height="10"></rect><rect x="100" y="10" width="10" height="50"></rect><rect x="120" y="0" width="10" height="70"></rect><rect x="180" y="0" width="10" height="70"></rect><rect x="130" y="0" width="10" height="10"></rect><rect x="170" y="0" width="10" height="10"></rect><rect x="140" y="10" width="10" height="10"></rect><rect x="160" y="10" width="10" height="10"></rect><rect x="150" y="20" width="10" height="20"></rect></g></svg>